<svg width="2104" height="2230" viewBox="0 0 2104 2230" fill="none" xmlns="http://www.w3.org/2000/svg">
<path fill-rule="evenodd" clip-rule="evenodd" d="M1756.19 1498.87L1460.85 2229.87L731.371 1935.15L989.254 1296.86C1009.94 1245.66 1068.23 1220.92 1119.43 1241.61L1756.19 1498.87L1756.19 1498.87ZM541.607 1006.89C743.046 1088.27 840.368 1317.55 758.981 1518.99L758.365 1520.51C676.978 1721.95 447.703 1819.28 246.263 1737.89C44.8226 1656.5 -52.4982 1427.22 28.888 1225.79L29.5043 1224.26C110.891 1022.82 340.167 925.5 541.607 1006.89V1006.89ZM1252.3 294.852L994.419 933.135C973.729 984.343 915.447 1009.08 864.239 988.392L227.481 731.125L522.825 0.124268L1252.3 294.852V294.852ZM2103.67 638.828L1808.33 1369.83L1171.57 1112.56C1120.36 1091.87 1095.62 1033.59 1116.31 982.383L1374.2 344.1L2103.67 638.828Z" fill="url(#paint0_linear_652_290)"/>
<defs>
<linearGradient id="paint0_linear_652_290" x1="532.926" y1="4.20557" x2="1464.99" y2="2219.8" gradientUnits="userSpaceOnUse">
<stop stop-color="#FF8F71"/>
<stop offset="1" stop-color="#FF3E55"/>
</linearGradient>
</defs>
</svg>
